<?xml version="1.0" encoding="UTF-8" standalone="no"?><!DOCTYPE svg PUBLIC "-//W3C//DTD SVG 1.1//EN" "http://www.w3.org/Graphics/SVG/1.1/DTD/svg11.dtd"><svg width="100%" height="100%" viewBox="0 0 1274 203" version="1.1" xmlns="http://www.w3.org/2000/svg" xmlns:xlink="http://www.w3.org/1999/xlink" xml:space="preserve" xmlns:serif="http://www.serif.com/" style="fill-rule:evenodd;clip-rule:evenodd;stroke-linejoin:round;stroke-miterlimit:2;"><g transform="matrix(1,0,0,1,-283.795049,-262.492914)"><g transform="matrix(2.564644,0,0,1.920529,-583.759813,-281.716903)"><path d="M338.275,283.664L338.275,388.636L357.927,388.636L357.927,358.644L377.691,332.851L377.691,388.636L397.343,388.636L397.343,283.664L377.691,283.664L377.691,329.102L357.927,329.102L357.927,283.664L338.275,283.664Z" style="fill:white;fill-rule:nonzero;"/><path d="M460.004,388.636L460.004,362.393L442.935,362.393L460.004,341.548L460.004,309.907L401.049,309.907L401.049,388.636L460.004,388.636ZM420.588,362.393L420.588,336.3L440.352,336.3L440.352,362.393L420.588,362.393Z" style="fill:white;fill-rule:nonzero;"/><path d="M491.784,362.543L483.25,362.543L483.25,283.365L463.598,283.365L463.598,388.636L491.784,388.636L491.784,362.543Z" style="fill:white;fill-rule:nonzero;"/><path d="M523.002,362.543L514.468,362.543L514.468,283.365L494.816,283.365L494.816,388.636L523.002,388.636L523.002,362.543Z" style="fill:white;fill-rule:nonzero;"/><path d="M584.878,309.907L526.034,309.907L526.034,388.636L584.878,388.636L584.878,309.907ZM565.338,362.543L545.574,362.543L545.574,336.15L565.338,336.15L565.338,362.543Z" style="fill:white;fill-rule:nonzero;"/><path d="M646.641,283.514L588.247,283.514L588.134,388.486L607.786,388.486L607.786,343.948L626.989,375.289L626.989,388.486L646.304,388.486L646.304,367.941L636.759,352.346L646.641,341.698L646.641,283.514ZM626.989,341.698L607.786,341.698L607.786,309.757L626.989,309.757L626.989,341.698Z" style="fill:white;fill-rule:nonzero;"/><path d="M650.01,309.907L650.01,388.636L675.276,388.636L689.201,366.142L689.201,388.636L708.965,388.636L708.965,309.907L689.201,309.907L689.201,362.543L669.549,362.543L669.549,309.907L650.01,309.907Z" style="fill:white;fill-rule:nonzero;"/><path d="M771.177,388.486L771.177,309.607L745.798,309.607L731.761,332.101L731.761,309.607L712.222,309.607L712.222,388.486L731.761,388.486L731.761,335.85L751.525,335.85L751.525,388.486L771.177,388.486Z" style="fill:white;fill-rule:nonzero;"/><path d="M834.737,362.243L834.737,388.636L774.546,388.636L774.546,350.096L793.412,329.552L794.31,329.552L794.31,362.243L834.737,362.243ZM774.546,283.365L774.546,309.607L814.973,309.607L814.973,343.648L815.647,343.648L834.737,317.405L834.737,308.857L814.973,283.365L774.546,283.365Z" style="fill:white;fill-rule:nonzero;"/><g transform="matrix(0.389918,0,0,0.52069,275.279102,214.625335)"><path d="M767.842,134.281L767.842,132.304L778.266,132.304L778.266,134.281L774.232,134.281L774.232,145.399L771.885,145.399L771.885,134.281L767.842,134.281Z" style="fill:white;fill-rule:nonzero;"/></g><g transform="matrix(0.389918,0,0,0.52069,275.279102,214.625335)"><path d="M780.314,145.399L780.314,132.304L783.847,132.304L786.334,139.062C786.422,139.32 786.523,139.656 786.638,140.069C786.752,140.482 786.868,140.924 786.985,141.396C787.102,141.868 787.21,142.32 787.31,142.754C787.41,142.326 787.518,141.876 787.635,141.405C787.752,140.933 787.868,140.491 787.982,140.078C788.097,139.664 788.195,139.326 788.277,139.062L790.738,132.304L794.28,132.304L794.28,145.399L791.942,145.399L791.942,138.79C791.942,138.462 791.946,138.056 791.955,137.573C791.964,137.089 791.976,136.575 791.99,136.03C792.005,135.485 792.015,134.952 792.021,134.431C791.875,134.993 791.719,135.553 791.555,136.109C791.391,136.666 791.236,137.179 791.089,137.647C790.943,138.116 790.817,138.497 790.711,138.79L788.294,145.399L786.299,145.399L783.847,138.79C783.742,138.509 783.617,138.14 783.474,137.683C783.33,137.225 783.178,136.722 783.017,136.171C782.855,135.62 782.693,135.063 782.529,134.501C782.541,134.993 782.554,135.507 782.568,136.043C782.583,136.579 782.595,137.088 782.604,137.568C782.612,138.049 782.617,138.456 782.617,138.79L782.617,145.399L780.314,145.399Z" style="fill:white;fill-rule:nonzero;"/></g></g></g></svg>